<svg xmlns="http://www.w3.org/2000/svg" width="512" height="512" viewBox="0 0 512 512" version="1.1"><path d="M 321.017 138.546 C 258.951 154.266, 247.354 157.489, 240.327 160.971 C 231.027 165.579, 222.697 172.681, 217.992 180.012 C 216.232 182.756, 214.668 185, 214.516 185 C 214.365 185, 211.304 182.120, 207.715 178.600 C 193.207 164.376, 169.567 154.664, 136 149.140 C 129.125 148.008, 118.929 146.777, 113.341 146.405 C 103.333 145.737, 103.144 145.765, 100.591 148.318 C 98.219 150.690, 98 151.610, 98.002 159.205 L 98.005 167.500 90.032 167.175 C 82.619 166.872, 81.882 167.027, 79.530 169.379 L 77 171.909 77 255.520 C 77 308.147, 77.363 339.809, 77.979 340.961 C 79.770 344.308, 83.711 344.775, 97.500 343.275 C 115.478 341.319, 145.525 342.122, 161 344.972 C 181.532 348.753, 194.007 353.399, 204.206 361.063 C 209.694 365.186, 214.326 366.666, 218.046 365.485 C 219.267 365.098, 223.019 363.026, 226.383 360.880 C 234.008 356.019, 245.410 352.318, 256.777 351.016 C 261.815 350.439, 296.666 350.013, 339.282 350.008 C 419.347 349.999, 417.393 350.130, 421.832 344.486 L 424 341.730 424 270.830 C 424 194.922, 424.116 196.765, 419.190 194.334 C 418.261 193.875, 388.253 193.275, 352.506 193 L 287.511 192.500 340.006 180.106 C 417.432 161.827, 415.148 162.433, 417.750 159.460 C 420.673 156.119, 420.583 153.632, 417.085 141.111 C 413.808 129.380, 412.046 126.463, 406.296 123.249 C 398.505 118.895, 398.846 118.834, 321.017 138.546 M 384.682 134.017 C 378.732 135.549, 373.660 137.006, 373.411 137.256 C 372.950 137.717, 386.479 153.571, 389.080 155.617 C 390.146 156.456, 392.682 156.212, 399.250 154.639 C 404.063 153.487, 408 152.107, 408 151.573 C 408 149.160, 402.882 134.153, 401.757 133.266 C 399.081 131.157, 395.107 131.332, 384.682 134.017 M 345.761 144.185 C 340.204 145.645, 338.231 146.569, 338.761 147.464 C 339.168 148.149, 342.906 152.394, 347.070 156.897 L 354.640 165.085 363.395 163.135 C 368.210 162.062, 372.333 161, 372.557 160.776 C 372.781 160.552, 369.697 156.348, 365.702 151.434 C 357.387 141.205, 357.269 141.162, 345.761 144.185 M 312.819 152.417 C 308.045 153.563, 303.856 154.789, 303.510 155.143 C 303.164 155.497, 306.638 159.725, 311.231 164.540 L 319.581 173.294 327.541 171.549 C 331.918 170.589, 335.909 169.416, 336.409 168.942 C 337.139 168.252, 328.974 157.914, 322.568 151.417 C 321.802 150.640, 319.044 150.923, 312.819 152.417 M 111.322 168.426 C 111.483 177.855, 111.651 178.716, 113.079 177.426 C 113.947 176.642, 114.983 176, 115.380 176 C 115.778 176, 114.889 177.125, 113.405 178.500 C 111.432 180.329, 111.136 181, 112.304 181 C 113.182 181, 114.329 180.234, 114.854 179.297 C 115.542 178.066, 115.759 179.019, 115.635 182.732 C 115.540 185.558, 115.152 188.182, 114.771 188.562 C 114.391 188.943, 114.237 187.622, 114.431 185.627 C 114.693 182.915, 114.404 182, 113.284 182 C 112.341 182, 112.007 182.575, 112.382 183.552 C 112.723 184.442, 112.555 184.843, 111.989 184.493 C 111.445 184.157, 111 184.359, 111 184.941 C 111 185.523, 111.505 186, 112.122 186 C 112.929 186, 112.916 186.397, 112.074 187.411 C 111.260 188.392, 111.227 189.022, 111.968 189.480 C 112.553 189.842, 112.762 190.577, 112.430 191.113 C 112.099 191.649, 112.328 192.690, 112.939 193.427 C 113.776 194.435, 113.688 194.906, 112.588 195.328 C 111.772 195.641, 111.233 196.909, 111.370 198.195 C 111.639 200.718, 112.399 201.378, 114.275 200.721 C 115.143 200.417, 114.964 199.688, 113.658 198.216 C 111.867 196.196, 111.868 196.153, 113.695 196.630 C 116.725 197.423, 116.426 201.478, 113.226 202.981 C 111.583 203.753, 111.010 204.446, 111.784 204.726 C 112.490 204.981, 113.727 204.641, 114.534 203.972 C 115.340 203.303, 116 203.184, 116 203.709 C 116 204.233, 114.987 205.207, 113.750 205.873 C 112.005 206.812, 111.472 208.030, 111.374 211.292 C 111.304 213.607, 111.438 214.985, 111.672 214.356 C 112.250 212.798, 116 213.890, 116 215.617 C 116 216.377, 115.523 217, 114.941 217 C 114.359 217, 114.160 216.550, 114.500 216 C 115.291 214.719, 113.937 214.738, 112 216.034 C 110.693 216.909, 110.731 217.215, 112.303 218.418 C 113.675 219.468, 113.794 219.944, 112.803 220.410 C 112.086 220.747, 112.464 220.847, 113.642 220.633 C 115.458 220.303, 115.754 220.681, 115.585 223.122 C 115.475 224.705, 115.749 226, 116.193 226 C 116.637 226, 117 211.825, 117 194.500 L 117 163 119.778 163 C 121.318 163, 123.318 162.109, 124.268 161 C 125.913 159.079, 125.885 159, 123.555 159 C 122.222 159, 119.976 159.439, 118.565 159.975 C 116.046 160.933, 114.772 159.662, 117.250 158.662 C 117.938 158.385, 116.845 158.122, 114.822 158.079 L 111.144 158 111.322 168.426 M 277.299 160.914 L 267.098 163.637 276.299 172.719 L 285.500 181.802 294.303 179.618 C 299.144 178.416, 303.132 177.068, 303.164 176.621 C 303.215 175.912, 288.100 157.845, 287.666 158.096 C 287.575 158.148, 282.910 159.417, 277.299 160.914 M 125.540 161.347 C 123.142 163.100, 124.156 163.591, 131.931 164.439 C 137.705 165.069, 138.228 164.980, 137.058 163.570 C 136.274 162.625, 136.175 162, 136.810 162 C 137.390 162, 138.151 162.900, 138.500 164 C 139.118 165.946, 141.313 166.541, 146.773 166.242 C 148.023 166.173, 148.841 166.449, 148.590 166.854 C 148.339 167.260, 151.367 168.418, 155.317 169.428 C 159.268 170.438, 165.939 172.526, 170.141 174.067 C 174.425 175.638, 178.819 176.640, 180.141 176.348 C 181.606 176.024, 182.048 176.153, 181.306 176.688 C 180.514 177.259, 183.036 178.971, 188.806 181.780 C 196.632 185.589, 197.181 185.733, 194.301 183.225 C 186.857 176.743, 160.100 165.199, 155.732 166.585 C 154.293 167.042, 153.964 166.868, 154.531 165.950 C 155.098 165.033, 154.733 164.837, 153.204 165.236 C 152.045 165.540, 150.954 165.361, 150.780 164.839 C 150.606 164.317, 148.672 163.802, 146.482 163.695 C 144.292 163.588, 142.274 163.204, 141.998 162.842 C 141.721 162.480, 139.809 161.867, 137.748 161.480 C 134.588 160.888, 134 161.050, 134 162.511 C 134 163.916, 133.723 164.015, 132.544 163.036 C 131.743 162.372, 130.505 162.125, 129.794 162.488 C 129.082 162.851, 129.374 162.440, 130.441 161.574 C 132.328 160.044, 132.312 160, 129.882 160 C 128.507 160, 126.553 160.606, 125.540 161.347 M 114.681 172.612 C 115.128 173.776, 114.964 174.096, 114.170 173.605 C 113.526 173.207, 113 173.359, 113 173.941 C 113 174.523, 113.675 175, 114.500 175 C 116.175 175, 116.547 172.456, 115.011 171.507 C 114.424 171.144, 114.290 171.593, 114.681 172.612 M 113.638 191.500 C 113.308 192.360, 113.618 193, 114.365 193 C 115.081 193, 115.667 192.325, 115.667 191.500 C 115.667 190.675, 115.340 190, 114.940 190 C 114.541 190, 113.955 190.675, 113.638 191.500 M 286.198 205.856 C 285.294 206.430, 284.989 208.640, 285.198 213.091 L 285.500 219.500 294 219.500 L 302.500 219.500 302.802 213.091 C 303.011 208.640, 302.706 206.430, 301.802 205.856 C 301.086 205.402, 297.575 205.031, 294 205.031 C 290.425 205.031, 286.914 205.402, 286.198 205.856 M 321.667 205.667 C 321.300 206.033, 321 209.360, 321 213.060 C 321 218.271, 321.356 219.923, 322.582 220.393 C 325.406 221.477, 336.558 221.042, 337.800 219.800 C 338.460 219.140, 339 216.080, 339 213 C 339 209.920, 338.460 206.860, 337.800 206.200 C 336.534 204.934, 322.851 204.482, 321.667 205.667 M 357.667 205.667 C 357.300 206.033, 357 209.370, 357 213.081 L 357 219.829 364.505 220.533 C 374.161 221.437, 375 220.794, 375 212.485 C 375 207.689, 374.628 206.071, 373.418 205.607 C 371.276 204.785, 358.500 204.833, 357.667 205.667 M 394.750 206.080 C 393.404 206.864, 393 208.428, 393 212.850 C 393 216.012, 393.540 219.140, 394.200 219.800 C 395.446 221.046, 407.563 221.489, 410.418 220.393 C 411.663 219.915, 412 218.212, 412 212.393 L 412 205 404.250 205.030 C 399.988 205.047, 395.712 205.519, 394.750 206.080 M 114.097 207.383 C 113.215 208.446, 113.287 208.896, 114.408 209.326 C 115.401 209.707, 115.820 209.265, 115.721 207.943 C 115.546 205.627, 115.553 205.629, 114.097 207.383 M 232.400 209.765 C 229.178 211.917, 229 214.955, 229 267.799 C 229 319.834, 229.035 320.775, 231.073 323.365 C 232.248 324.859, 234.150 326, 235.466 326 C 238.758 326, 293.229 293.505, 311.500 280.641 C 320.359 274.404, 322.989 271.358, 322.995 267.327 C 323.002 262.853, 319.646 259.311, 307.733 251.222 C 293.304 241.425, 237.752 208.997, 235.430 209.015 C 234.368 209.024, 233.005 209.361, 232.400 209.765 M 111.302 223.321 C 110.960 223.874, 111.200 223.995, 111.845 223.595 C 112.480 223.203, 113 223.359, 113 223.941 C 113 224.523, 112.590 225, 112.088 225 C 111.140 225, 111.152 226.774, 112.113 228.500 C 112.875 229.869, 112.607 235.234, 111.704 236.681 C 110.735 238.234, 112.220 239.100, 113.983 238.010 C 115.131 237.301, 115.145 236.880, 114.063 235.576 C 113.022 234.322, 113.007 233.696, 113.989 232.513 C 114.668 231.695, 114.963 230.345, 114.643 229.513 C 114.324 228.681, 114.461 228, 114.948 228 C 115.435 228, 115.833 232.371, 115.833 237.714 C 115.833 246.154, 115.582 247.605, 113.917 248.771 C 111.821 250.239, 111.227 252.570, 113.250 251.387 C 113.938 250.985, 113.643 251.634, 112.595 252.828 C 111.534 254.037, 111.202 255, 111.845 255 C 112.480 255, 112.947 255.338, 112.882 255.750 C 112.571 257.716, 113.086 260, 113.839 260 C 114.301 260, 114.597 258.632, 114.498 256.961 C 114.398 255.290, 114.765 253.645, 115.313 253.307 C 115.861 252.968, 116.071 253.098, 115.780 253.595 C 115.488 254.093, 115.612 255.400, 116.055 256.500 C 116.515 257.645, 116.889 251.765, 116.930 242.750 C 116.990 229.298, 116.778 227, 115.481 227 C 114.389 227, 114.127 226.344, 114.548 224.667 C 114.979 222.946, 114.711 222.333, 113.523 222.333 C 112.637 222.333, 111.637 222.778, 111.302 223.321 M 304 232.360 C 304 232.558, 309.369 236.388, 315.932 240.871 C 330.156 250.589, 334.458 255.217, 336.104 262.572 C 338.905 275.090, 331.973 283.795, 306.300 300 L 291.249 309.500 347.875 310.233 C 387.349 310.744, 405.307 310.642, 407.164 309.897 C 411.857 308.015, 412.100 305.908, 411.789 269.802 C 411.519 238.397, 411.376 236.070, 409.595 234.104 C 407.705 232.017, 407.271 232, 355.845 232 C 327.330 232, 304 232.162, 304 232.360 M 112.683 239.650 C 111.618 240.715, 111.881 244, 113.031 244 C 114.510 244, 115.441 241.041, 114.316 239.916 C 113.794 239.394, 113.059 239.274, 112.683 239.650 M 116 260.559 C 116 261.516, 115.517 261.845, 114.750 261.412 C 113.750 260.848, 113.750 260.976, 114.750 262.053 C 116.196 263.611, 116.413 266, 115.108 266 C 114.618 266, 113.934 264.875, 113.589 263.500 C 112.910 260.793, 111 260.055, 111 262.500 C 111 263.325, 111.424 264, 111.943 264 C 112.461 264, 112.714 264.891, 112.504 265.979 C 112.294 267.067, 112.615 268.262, 113.216 268.633 C 113.935 269.078, 114.020 268.829, 113.463 267.905 C 112.751 266.724, 112.877 266.711, 114.249 267.823 C 115.891 269.154, 115.608 272, 113.834 272 C 113.310 272, 113.160 271.550, 113.500 271 C 113.840 270.450, 113.416 270, 112.559 270 C 111.702 270, 111.112 270.525, 111.250 271.167 C 111.594 272.774, 114.359 275.756, 115.133 275.355 C 115.481 275.175, 115.713 276.316, 115.648 277.892 C 115.568 279.857, 115.107 280.595, 114.182 280.239 C 113.060 279.809, 113.057 279.579, 114.166 278.876 C 115.246 278.192, 115.251 278.028, 114.191 278.015 C 113.471 278.007, 113.129 277.601, 113.430 277.113 C 113.731 276.626, 113.301 275.664, 112.473 274.977 C 111.163 273.890, 111.047 274.231, 111.583 277.614 C 111.921 279.751, 112.405 281.837, 112.658 282.250 C 112.911 282.663, 112.709 283, 112.208 283 C 111.461 283, 111.284 299.936, 112.023 300.750 C 112.718 301.515, 112.425 303.601, 111.533 304.235 C 110.858 304.715, 110.913 304.975, 111.693 304.985 C 112.350 304.993, 113.546 304.058, 114.352 302.908 C 115.727 300.945, 115.847 300.929, 116.293 302.658 C 116.554 303.671, 116.820 294.262, 116.884 281.750 C 116.948 269.238, 116.775 259, 116.500 259 C 116.225 259, 116 259.702, 116 260.559 M 114.137 287.894 C 112.986 288.623, 112.986 288.829, 114.137 289.216 C 115.286 289.603, 115.284 289.936, 114.128 291.337 C 113.224 292.432, 113.142 293, 113.886 293 C 114.687 293, 114.650 293.621, 113.758 295.131 C 112.749 296.840, 112.748 297.351, 113.756 297.716 C 114.447 297.966, 114.758 298.582, 114.447 299.085 C 114.136 299.588, 114.261 300, 114.725 300 C 115.188 300, 115.631 297.075, 115.709 293.500 C 115.786 289.925, 115.771 287.007, 115.675 287.015 C 115.579 287.024, 114.887 287.419, 114.137 287.894 M 284.704 322.630 C 284.317 323.017, 284 326.360, 284 330.060 C 284 335.271, 284.356 336.923, 285.582 337.393 C 287.913 338.287, 299.291 338.102, 300.799 337.145 C 301.712 336.566, 302.010 334.263, 301.799 329.410 L 301.500 322.500 293.454 322.213 C 289.028 322.055, 285.091 322.242, 284.704 322.630 M 320.467 324.276 C 320.142 325.572, 320.016 328.853, 320.188 331.566 L 320.500 336.500 326.805 337.345 C 330.273 337.809, 334.230 337.908, 335.598 337.565 C 337.998 336.962, 338.076 336.684, 337.793 329.720 L 337.500 322.500 329.279 322.210 C 321.369 321.931, 321.036 322.009, 320.467 324.276 M 357.102 323.378 C 356.374 324.254, 356.015 327.147, 356.198 330.666 L 356.500 336.500 365.500 336.500 L 374.500 336.500 374.500 329.500 L 374.500 322.500 366.404 322.212 C 360.273 321.994, 358.015 322.277, 357.102 323.378 M 393 329.500 L 393 337 402 337 L 411 337 411 329.500 L 411 322 402 322 L 393 322 393 329.500" stroke="none" fill="#1f3030" fill-rule="evenodd"/><path d="M 0 256.002 L 0 512.004 256.250 511.752 L 512.500 511.500 512.752 255.750 L 513.004 0 256.502 0 L 0 0 0 256.002 M 0.492 256.500 C 0.492 397.300, 0.608 454.751, 0.750 384.170 C 0.892 313.588, 0.892 198.388, 0.750 128.170 C 0.608 57.951, 0.492 115.700, 0.492 256.500 M 321.017 138.546 C 258.951 154.266, 247.354 157.489, 240.327 160.971 C 231.027 165.579, 222.697 172.681, 217.992 180.012 C 216.232 182.756, 214.668 185, 214.516 185 C 214.365 185, 211.304 182.120, 207.715 178.600 C 193.207 164.376, 169.567 154.664, 136 149.140 C 129.125 148.008, 118.929 146.777, 113.341 146.405 C 103.333 145.737, 103.144 145.765, 100.591 148.318 C 98.219 150.690, 98 151.610, 98.002 159.205 L 98.005 167.500 90.032 167.175 C 82.619 166.872, 81.882 167.027, 79.530 169.379 L 77 171.909 77 255.520 C 77 308.147, 77.363 339.809, 77.979 340.961 C 79.770 344.308, 83.711 344.775, 97.500 343.275 C 115.478 341.319, 145.525 342.122, 161 344.972 C 181.532 348.753, 194.007 353.399, 204.206 361.063 C 209.694 365.186, 214.326 366.666, 218.046 365.485 C 219.267 365.098, 223.019 363.026, 226.383 360.880 C 234.008 356.019, 245.410 352.318, 256.777 351.016 C 261.815 350.439, 296.666 350.013, 339.282 350.008 C 419.347 349.999, 417.393 350.130, 421.832 344.486 L 424 341.730 424 270.830 C 424 194.922, 424.116 196.765, 419.190 194.334 C 418.261 193.875, 388.253 193.275, 352.506 193 L 287.511 192.500 340.006 180.106 C 417.432 161.827, 415.148 162.433, 417.750 159.460 C 420.673 156.119, 420.583 153.632, 417.085 141.111 C 413.808 129.380, 412.046 126.463, 406.296 123.249 C 398.505 118.895, 398.846 118.834, 321.017 138.546 M 384.682 134.017 C 378.732 135.549, 373.660 137.006, 373.411 137.256 C 372.950 137.717, 386.479 153.571, 389.080 155.617 C 390.146 156.456, 392.682 156.212, 399.250 154.639 C 404.063 153.487, 408 152.107, 408 151.573 C 408 149.160, 402.882 134.153, 401.757 133.266 C 399.081 131.157, 395.107 131.332, 384.682 134.017 M 345.761 144.185 C 340.204 145.645, 338.231 146.569, 338.761 147.464 C 339.168 148.149, 342.906 152.394, 347.070 156.897 L 354.640 165.085 363.395 163.135 C 368.210 162.062, 372.333 161, 372.557 160.776 C 372.781 160.552, 369.697 156.348, 365.702 151.434 C 357.387 141.205, 357.269 141.162, 345.761 144.185 M 312.819 152.417 C 308.045 153.563, 303.856 154.789, 303.510 155.143 C 303.164 155.497, 306.638 159.725, 311.231 164.540 L 319.581 173.294 327.541 171.549 C 331.918 170.589, 335.909 169.416, 336.409 168.942 C 337.139 168.252, 328.974 157.914, 322.568 151.417 C 321.802 150.640, 319.044 150.923, 312.819 152.417 M 111.322 168.426 C 111.483 177.855, 111.651 178.716, 113.079 177.426 C 113.947 176.642, 114.983 176, 115.380 176 C 115.778 176, 114.889 177.125, 113.405 178.500 C 111.432 180.329, 111.136 181, 112.304 181 C 113.182 181, 114.329 180.234, 114.854 179.297 C 115.542 178.066, 115.759 179.019, 115.635 182.732 C 115.540 185.558, 115.152 188.182, 114.771 188.562 C 114.391 188.943, 114.237 187.622, 114.431 185.627 C 114.693 182.915, 114.404 182, 113.284 182 C 112.341 182, 112.007 182.575, 112.382 183.552 C 112.723 184.442, 112.555 184.843, 111.989 184.493 C 111.445 184.157, 111 184.359, 111 184.941 C 111 185.523, 111.505 186, 112.122 186 C 112.929 186, 112.916 186.397, 112.074 187.411 C 111.260 188.392, 111.227 189.022, 111.968 189.480 C 112.553 189.842, 112.762 190.577, 112.430 191.113 C 112.099 191.649, 112.328 192.690, 112.939 193.427 C 113.776 194.435, 113.688 194.906, 112.588 195.328 C 111.772 195.641, 111.233 196.909, 111.370 198.195 C 111.639 200.718, 112.399 201.378, 114.275 200.721 C 115.143 200.417, 114.964 199.688, 113.658 198.216 C 111.867 196.196, 111.868 196.153, 113.695 196.630 C 116.725 197.423, 116.426 201.478, 113.226 202.981 C 111.583 203.753, 111.010 204.446, 111.784 204.726 C 112.490 204.981, 113.727 204.641, 114.534 203.972 C 115.340 203.303, 116 203.184, 116 203.709 C 116 204.233, 114.987 205.207, 113.750 205.873 C 112.005 206.812, 111.472 208.030, 111.374 211.292 C 111.304 213.607, 111.438 214.985, 111.672 214.356 C 112.250 212.798, 116 213.890, 116 215.617 C 116 216.377, 115.523 217, 114.941 217 C 114.359 217, 114.160 216.550, 114.500 216 C 115.291 214.719, 113.937 214.738, 112 216.034 C 110.693 216.909, 110.731 217.215, 112.303 218.418 C 113.675 219.468, 113.794 219.944, 112.803 220.410 C 112.086 220.747, 112.464 220.847, 113.642 220.633 C 115.458 220.303, 115.754 220.681, 115.585 223.122 C 115.475 224.705, 115.749 226, 116.193 226 C 116.637 226, 117 211.825, 117 194.500 L 117 163 119.778 163 C 121.318 163, 123.318 162.109, 124.268 161 C 125.913 159.079, 125.885 159, 123.555 159 C 122.222 159, 119.976 159.439, 118.565 159.975 C 116.046 160.933, 114.772 159.662, 117.250 158.662 C 117.938 158.385, 116.845 158.122, 114.822 158.079 L 111.144 158 111.322 168.426 M 277.299 160.914 L 267.098 163.637 276.299 172.719 L 285.500 181.802 294.303 179.618 C 299.144 178.416, 303.132 177.068, 303.164 176.621 C 303.215 175.912, 288.100 157.845, 287.666 158.096 C 287.575 158.148, 282.910 159.417, 277.299 160.914 M 125.540 161.347 C 123.142 163.100, 124.156 163.591, 131.931 164.439 C 137.705 165.069, 138.228 164.980, 137.058 163.570 C 136.274 162.625, 136.175 162, 136.810 162 C 137.390 162, 138.151 162.900, 138.500 164 C 139.118 165.946, 141.313 166.541, 146.773 166.242 C 148.023 166.173, 148.841 166.449, 148.590 166.854 C 148.339 167.260, 151.367 168.418, 155.317 169.428 C 159.268 170.438, 165.939 172.526, 170.141 174.067 C 174.425 175.638, 178.819 176.640, 180.141 176.348 C 181.606 176.024, 182.048 176.153, 181.306 176.688 C 180.514 177.259, 183.036 178.971, 188.806 181.780 C 196.632 185.589, 197.181 185.733, 194.301 183.225 C 186.857 176.743, 160.100 165.199, 155.732 166.585 C 154.293 167.042, 153.964 166.868, 154.531 165.950 C 155.098 165.033, 154.733 164.837, 153.204 165.236 C 152.045 165.540, 150.954 165.361, 150.780 164.839 C 150.606 164.317, 148.672 163.802, 146.482 163.695 C 144.292 163.588, 142.274 163.204, 141.998 162.842 C 141.721 162.480, 139.809 161.867, 137.748 161.480 C 134.588 160.888, 134 161.050, 134 162.511 C 134 163.916, 133.723 164.015, 132.544 163.036 C 131.743 162.372, 130.505 162.125, 129.794 162.488 C 129.082 162.851, 129.374 162.440, 130.441 161.574 C 132.328 160.044, 132.312 160, 129.882 160 C 128.507 160, 126.553 160.606, 125.540 161.347 M 114.681 172.612 C 115.128 173.776, 114.964 174.096, 114.170 173.605 C 113.526 173.207, 113 173.359, 113 173.941 C 113 174.523, 113.675 175, 114.500 175 C 116.175 175, 116.547 172.456, 115.011 171.507 C 114.424 171.144, 114.290 171.593, 114.681 172.612 M 113.638 191.500 C 113.308 192.360, 113.618 193, 114.365 193 C 115.081 193, 115.667 192.325, 115.667 191.500 C 115.667 190.675, 115.340 190, 114.940 190 C 114.541 190, 113.955 190.675, 113.638 191.500 M 286.198 205.856 C 285.294 206.430, 284.989 208.640, 285.198 213.091 L 285.500 219.500 294 219.500 L 302.500 219.500 302.802 213.091 C 303.011 208.640, 302.706 206.430, 301.802 205.856 C 301.086 205.402, 297.575 205.031, 294 205.031 C 290.425 205.031, 286.914 205.402, 286.198 205.856 M 321.667 205.667 C 321.300 206.033, 321 209.360, 321 213.060 C 321 218.271, 321.356 219.923, 322.582 220.393 C 325.406 221.477, 336.558 221.042, 337.800 219.800 C 338.460 219.140, 339 216.080, 339 213 C 339 209.920, 338.460 206.860, 337.800 206.200 C 336.534 204.934, 322.851 204.482, 321.667 205.667 M 357.667 205.667 C 357.300 206.033, 357 209.370, 357 213.081 L 357 219.829 364.505 220.533 C 374.161 221.437, 375 220.794, 375 212.485 C 375 207.689, 374.628 206.071, 373.418 205.607 C 371.276 204.785, 358.500 204.833, 357.667 205.667 M 394.750 206.080 C 393.404 206.864, 393 208.428, 393 212.850 C 393 216.012, 393.540 219.140, 394.200 219.800 C 395.446 221.046, 407.563 221.489, 410.418 220.393 C 411.663 219.915, 412 218.212, 412 212.393 L 412 205 404.250 205.030 C 399.988 205.047, 395.712 205.519, 394.750 206.080 M 114.097 207.383 C 113.215 208.446, 113.287 208.896, 114.408 209.326 C 115.401 209.707, 115.820 209.265, 115.721 207.943 C 115.546 205.627, 115.553 205.629, 114.097 207.383 M 232.400 209.765 C 229.178 211.917, 229 214.955, 229 267.799 C 229 319.834, 229.035 320.775, 231.073 323.365 C 232.248 324.859, 234.150 326, 235.466 326 C 238.758 326, 293.229 293.505, 311.500 280.641 C 320.359 274.404, 322.989 271.358, 322.995 267.327 C 323.002 262.853, 319.646 259.311, 307.733 251.222 C 293.304 241.425, 237.752 208.997, 235.430 209.015 C 234.368 209.024, 233.005 209.361, 232.400 209.765 M 111.302 223.321 C 110.960 223.874, 111.200 223.995, 111.845 223.595 C 112.480 223.203, 113 223.359, 113 223.941 C 113 224.523, 112.590 225, 112.088 225 C 111.140 225, 111.152 226.774, 112.113 228.500 C 112.875 229.869, 112.607 235.234, 111.704 236.681 C 110.735 238.234, 112.220 239.100, 113.983 238.010 C 115.131 237.301, 115.145 236.880, 114.063 235.576 C 113.022 234.322, 113.007 233.696, 113.989 232.513 C 114.668 231.695, 114.963 230.345, 114.643 229.513 C 114.324 228.681, 114.461 228, 114.948 228 C 115.435 228, 115.833 232.371, 115.833 237.714 C 115.833 246.154, 115.582 247.605, 113.917 248.771 C 111.821 250.239, 111.227 252.570, 113.250 251.387 C 113.938 250.985, 113.643 251.634, 112.595 252.828 C 111.534 254.037, 111.202 255, 111.845 255 C 112.480 255, 112.947 255.338, 112.882 255.750 C 112.571 257.716, 113.086 260, 113.839 260 C 114.301 260, 114.597 258.632, 114.498 256.961 C 114.398 255.290, 114.765 253.645, 115.313 253.307 C 115.861 252.968, 116.071 253.098, 115.780 253.595 C 115.488 254.093, 115.612 255.400, 116.055 256.500 C 116.515 257.645, 116.889 251.765, 116.930 242.750 C 116.990 229.298, 116.778 227, 115.481 227 C 114.389 227, 114.127 226.344, 114.548 224.667 C 114.979 222.946, 114.711 222.333, 113.523 222.333 C 112.637 222.333, 111.637 222.778, 111.302 223.321 M 304 232.360 C 304 232.558, 309.369 236.388, 315.932 240.871 C 330.156 250.589, 334.458 255.217, 336.104 262.572 C 338.905 275.090, 331.973 283.795, 306.300 300 L 291.249 309.500 347.875 310.233 C 387.349 310.744, 405.307 310.642, 407.164 309.897 C 411.857 308.015, 412.100 305.908, 411.789 269.802 C 411.519 238.397, 411.376 236.070, 409.595 234.104 C 407.705 232.017, 407.271 232, 355.845 232 C 327.330 232, 304 232.162, 304 232.360 M 112.683 239.650 C 111.618 240.715, 111.881 244, 113.031 244 C 114.510 244, 115.441 241.041, 114.316 239.916 C 113.794 239.394, 113.059 239.274, 112.683 239.650 M 116 260.559 C 116 261.516, 115.517 261.845, 114.750 261.412 C 113.750 260.848, 113.750 260.976, 114.750 262.053 C 116.196 263.611, 116.413 266, 115.108 266 C 114.618 266, 113.934 264.875, 113.589 263.500 C 112.910 260.793, 111 260.055, 111 262.500 C 111 263.325, 111.424 264, 111.943 264 C 112.461 264, 112.714 264.891, 112.504 265.979 C 112.294 267.067, 112.615 268.262, 113.216 268.633 C 113.935 269.078, 114.020 268.829, 113.463 267.905 C 112.751 266.724, 112.877 266.711, 114.249 267.823 C 115.891 269.154, 115.608 272, 113.834 272 C 113.310 272, 113.160 271.550, 113.500 271 C 113.840 270.450, 113.416 270, 112.559 270 C 111.702 270, 111.112 270.525, 111.250 271.167 C 111.594 272.774, 114.359 275.756, 115.133 275.355 C 115.481 275.175, 115.713 276.316, 115.648 277.892 C 115.568 279.857, 115.107 280.595, 114.182 280.239 C 113.060 279.809, 113.057 279.579, 114.166 278.876 C 115.246 278.192, 115.251 278.028, 114.191 278.015 C 113.471 278.007, 113.129 277.601, 113.430 277.113 C 113.731 276.626, 113.301 275.664, 112.473 274.977 C 111.163 273.890, 111.047 274.231, 111.583 277.614 C 111.921 279.751, 112.405 281.837, 112.658 282.250 C 112.911 282.663, 112.709 283, 112.208 283 C 111.461 283, 111.284 299.936, 112.023 300.750 C 112.718 301.515, 112.425 303.601, 111.533 304.235 C 110.858 304.715, 110.913 304.975, 111.693 304.985 C 112.350 304.993, 113.546 304.058, 114.352 302.908 C 115.727 300.945, 115.847 300.929, 116.293 302.658 C 116.554 303.671, 116.820 294.262, 116.884 281.750 C 116.948 269.238, 116.775 259, 116.500 259 C 116.225 259, 116 259.702, 116 260.559 M 114.137 287.894 C 112.986 288.623, 112.986 288.829, 114.137 289.216 C 115.286 289.603, 115.284 289.936, 114.128 291.337 C 113.224 292.432, 113.142 293, 113.886 293 C 114.687 293, 114.650 293.621, 113.758 295.131 C 112.749 296.840, 112.748 297.351, 113.756 297.716 C 114.447 297.966, 114.758 298.582, 114.447 299.085 C 114.136 299.588, 114.261 300, 114.725 300 C 115.188 300, 115.631 297.075, 115.709 293.500 C 115.786 289.925, 115.771 287.007, 115.675 287.015 C 115.579 287.024, 114.887 287.419, 114.137 287.894 M 284.704 322.630 C 284.317 323.017, 284 326.360, 284 330.060 C 284 335.271, 284.356 336.923, 285.582 337.393 C 287.913 338.287, 299.291 338.102, 300.799 337.145 C 301.712 336.566, 302.010 334.263, 301.799 329.410 L 301.500 322.500 293.454 322.213 C 289.028 322.055, 285.091 322.242, 284.704 322.630 M 320.467 324.276 C 320.142 325.572, 320.016 328.853, 320.188 331.566 L 320.500 336.500 326.805 337.345 C 330.273 337.809, 334.230 337.908, 335.598 337.565 C 337.998 336.962, 338.076 336.684, 337.793 329.720 L 337.500 322.500 329.279 322.210 C 321.369 321.931, 321.036 322.009, 320.467 324.276 M 357.102 323.378 C 356.374 324.254, 356.015 327.147, 356.198 330.666 L 356.500 336.500 365.500 336.500 L 374.500 336.500 374.500 329.500 L 374.500 322.500 366.404 322.212 C 360.273 321.994, 358.015 322.277, 357.102 323.378 M 393 329.500 L 393 337 402 337 L 411 337 411 329.500 L 411 322 402 322 L 393 322 393 329.500" stroke="none" fill="#efe3d5" fill-rule="evenodd"/></svg>